<svg height="1310" width="720" xmlns="http://www.w3.org/2000/svg">
<rect height="1310" fill="#555" width="720"></rect>
<text fill="#7f7" font-family="Courier New" font-size="12" xml:space="preserve">
<tspan x="10" y="26">17 megabytes installed</tspan>
<tspan x="10" y="42"></tspan>
<tspan x="10" y="58">node_modules</tspan>
<tspan x="10" y="74">└─┬ node-pushnotifications@1.0.18 </tspan>
<tspan x="10" y="90">  ├─┬ apn@2.1.4 </tspan>
<tspan x="10" y="106">  │ ├─┬ debug@2.6.4 </tspan>
<tspan x="10" y="122">  │ │ └── ms@0.7.3 </tspan>
<tspan x="10" y="138">  │ ├── http2@3.3.6 </tspan>
<tspan x="10" y="154">  │ ├─┬ jsonwebtoken@7.3.0 </tspan>
<tspan x="10" y="170">  │ │ ├─┬ joi@6.10.1 </tspan>
<tspan x="10" y="186">  │ │ │ ├── hoek@2.16.3 </tspan>
<tspan x="10" y="202">  │ │ │ ├── isemail@1.2.0 </tspan>
<tspan x="10" y="218">  │ │ │ ├── moment@2.18.1 </tspan>
<tspan x="10" y="234">  │ │ │ └── topo@1.1.0 </tspan>
<tspan x="10" y="250">  │ │ ├─┬ jws@3.1.4 </tspan>
<tspan x="10" y="266">  │ │ │ ├── base64url@2.0.0 </tspan>
<tspan x="10" y="282">  │ │ │ └─┬ jwa@1.1.5 </tspan>
<tspan x="10" y="298">  │ │ │   ├── buffer-equal-constant-time@1.0.1 </tspan>
<tspan x="10" y="314">  │ │ │   └── ecdsa-sig-formatter@1.0.9 </tspan>
<tspan x="10" y="330">  │ │ ├── lodash.once@4.1.1 </tspan>
<tspan x="10" y="346">  │ │ └── xtend@4.0.1 </tspan>
<tspan x="10" y="362">  │ ├── node-forge@0.6.49 </tspan>
<tspan x="10" y="378">  │ └─┬ verror@1.9.0 </tspan>
<tspan x="10" y="394">  │   ├── assert-plus@1.0.0 </tspan>
<tspan x="10" y="410">  │   ├── core-util-is@1.0.2 </tspan>
<tspan x="10" y="426">  │   └── extsprintf@1.3.0 </tspan>
<tspan x="10" y="442">  ├── node-adm@0.9.1 </tspan>
<tspan x="10" y="458">  ├─┬ node-gcm@0.14.6 </tspan>
<tspan x="10" y="474">  │ ├── debug@0.8.1 </tspan>
<tspan x="10" y="490">  │ ├── lodash@3.10.1 </tspan>
<tspan x="10" y="506">  │ └─┬ request@2.81.0 </tspan>
<tspan x="10" y="522">  │   ├── aws-sign2@0.6.0 </tspan>
<tspan x="10" y="538">  │   ├── aws4@1.6.0 </tspan>
<tspan x="10" y="554">  │   ├── caseless@0.12.0 </tspan>
<tspan x="10" y="570">  │   ├─┬ combined-stream@1.0.5 </tspan>
<tspan x="10" y="586">  │   │ └── delayed-stream@1.0.0 </tspan>
<tspan x="10" y="602">  │   ├── extend@3.0.0 </tspan>
<tspan x="10" y="618">  │   ├── forever-agent@0.6.1 </tspan>
<tspan x="10" y="634">  │   ├─┬ form-data@2.1.4 </tspan>
<tspan x="10" y="650">  │   │ └── asynckit@0.4.0 </tspan>
<tspan x="10" y="666">  │   ├─┬ har-validator@4.2.1 </tspan>
<tspan x="10" y="682">  │   │ ├─┬ ajv@4.11.7 </tspan>
<tspan x="10" y="698">  │   │ │ ├── co@4.6.0 </tspan>
<tspan x="10" y="714">  │   │ │ └─┬ json-stable-stringify@1.0.1 </tspan>
<tspan x="10" y="730">  │   │ │   └── jsonify@0.0.0 </tspan>
<tspan x="10" y="746">  │   │ └── har-schema@1.0.5 </tspan>
<tspan x="10" y="762">  │   ├─┬ hawk@3.1.3 </tspan>
<tspan x="10" y="778">  │   │ ├── boom@2.10.1 </tspan>
<tspan x="10" y="794">  │   │ ├── cryptiles@2.0.5 </tspan>
<tspan x="10" y="810">  │   │ └── sntp@1.0.9 </tspan>
<tspan x="10" y="826">  │   ├─┬ http-signature@1.1.1 </tspan>
<tspan x="10" y="842">  │   │ ├── assert-plus@0.2.0 </tspan>
<tspan x="10" y="858">  │   │ ├─┬ jsprim@1.4.0 </tspan>
<tspan x="10" y="874">  │   │ │ ├── extsprintf@1.0.2 </tspan>
<tspan x="10" y="890">  │   │ │ ├── json-schema@0.2.3 </tspan>
<tspan x="10" y="906">  │   │ │ └── verror@1.3.6 </tspan>
<tspan x="10" y="922">  │   │ └─┬ sshpk@1.13.0 </tspan>
<tspan x="10" y="938">  │   │   ├── asn1@0.2.3 </tspan>
<tspan x="10" y="954">  │   │   ├── bcrypt-pbkdf@1.0.1 </tspan>
<tspan x="10" y="970">  │   │   ├── dashdash@1.14.1 </tspan>
<tspan x="10" y="986">  │   │   ├── ecc-jsbn@0.1.1 </tspan>
<tspan x="10" y="1002">  │   │   ├── getpass@0.1.6 </tspan>
<tspan x="10" y="1018">  │   │   ├── jodid25519@1.0.2 </tspan>
<tspan x="10" y="1034">  │   │   ├── jsbn@0.1.1 </tspan>
<tspan x="10" y="1050">  │   │   └── tweetnacl@0.14.5 </tspan>
<tspan x="10" y="1066">  │   ├── is-typedarray@1.0.0 </tspan>
<tspan x="10" y="1082">  │   ├── isstream@0.1.2 </tspan>
<tspan x="10" y="1098">  │   ├── json-stringify-safe@5.0.1 </tspan>
<tspan x="10" y="1114">  │   ├─┬ mime-types@2.1.15 </tspan>
<tspan x="10" y="1130">  │   │ └── mime-db@1.27.0 </tspan>
<tspan x="10" y="1146">  │   ├── oauth-sign@0.8.2 </tspan>
<tspan x="10" y="1162">  │   ├── performance-now@0.2.0 </tspan>
<tspan x="10" y="1178">  │   ├── qs@6.4.0 </tspan>
<tspan x="10" y="1194">  │   ├── safe-buffer@5.0.1 </tspan>
<tspan x="10" y="1210">  │   ├── stringstream@0.0.5 </tspan>
<tspan x="10" y="1226">  │   ├─┬ tough-cookie@2.3.2 </tspan>
<tspan x="10" y="1242">  │   │ └── punycode@1.4.1 </tspan>
<tspan x="10" y="1258">  │   ├── tunnel-agent@0.6.0 </tspan>
<tspan x="10" y="1274">  │   └── uuid@3.0.1 </tspan>
<tspan x="10" y="1290">  └── wns@0.5.3</tspan>
</text>
</svg>
